# xmcd
#
# Track frame offsets: 
#        150
#        9144
#        23732
#        33569
#        56984
#        83725
#        98459
#        119547
#        140685
#        170079
#        194826
#        210340
#        231883
#        248427
#        264548
#        300715
#
# Disc length: 4223 seconds
#
# Revision: 0
# Processed by: cddbd v1.5PL3 Copyright (c) Steve Scherf et al.
# Submitted via: ExactAudioCopy v0.95a3
#
DISCID=d5107d10
DTITLE=Slobberbone - Live - 20031231 - Dallas, TX [CD1 of 3)
DYEAR=2003
DGENRE=Alternative Country
TTITLE0='Intro'
TTITLE1=The End  [Alejandro Escovedo]
TTITLE2=Boy Howdy
TTITLE3=Whiskey Glass Eye
TTITLE4=Gimme Back My Dog
TTITLE5=Butchers
TTITLE6=Sober Song
TTITLE7=Sister Beams
TTITLE8=Find The Out
TTITLE9=Straight Faced (new song)
TTITLE10=That Is All
TTITLE11=Sweetness, That's Your Cue
TTITLE12=It's Too Late  [Bob Mould]
TTITLE13=Makes No Sense At All  [Hüsker Dü]
TTITLE14=I Can Tell Your Love Is Waning
TTITLE15=Your Excuse
EXTD=Recorded live at Barley House - Dallas, TX on December 31, 2003.
EXTT0=
EXTT1=
EXTT2=
EXTT3=
EXTT4=
EXTT5=
EXTT6=
EXTT7=
EXTT8=
EXTT9=
EXTT10=
EXTT11=
EXTT12=
EXTT13=
EXTT14=
EXTT15=
PLAYORDER=
